<svg width="1702" height="1183" viewBox="0 0 1702 1183" fill="none" xmlns="http://www.w3.org/2000/svg">
<g clip-path="url(#clip0_24049_3090)">
<path d="M-501.46 4365.24C192.49 3709.47 740.46 2795.71 665.832 1804.41C626.172 1204.53 377.385 663.214 88.5533 82.3508C-80.353 -255.58 -277.191 -572.434 -489.442 -922.088C-621.762 -1142.62 -767.521 -1359.51 -936.831 -1550.14L-1135.4 -1464.81C735.518 205.871 1130.15 2774.7 -730.74 4344.74L-501.494 4365.24L-501.46 4365.24Z" fill="url(#paint0_radial_24049_3090)"/>
<path d="M-501.454 4365.24C192.496 3709.47 740.465 2795.71 665.838 1804.41C626.177 1204.53 377.391 663.213 88.5589 82.3494C-80.3475 -255.582 -277.185 -572.435 -489.436 -922.089C-621.756 -1142.62 -767.515 -1359.51 -936.825 -1550.14L-738.294 -1635.46C-601.602 -1427.41 -504.494 -1185.38 -405.035 -953.57C-236.38 -568.442 -45.7406 -244.812 122.902 90.6863C415.08 676.77 744.986 1138.99 842.073 1721.19C1012.38 2730.92 392.087 3690.94 -272.205 4385.71L-501.451 4365.21L-501.454 4365.24Z" fill="url(#paint1_radial_24049_3090)"/>
<path d="M-272.214 4385.74C392.075 3691.01 1012.34 2730.98 842.065 1721.22C744.981 1138.99 415.071 676.804 122.893 90.7196C-45.7494 -244.779 -236.422 -568.412 -405.043 -953.537C-504.503 -1185.35 -601.611 -1427.37 -738.303 -1635.43L-539.773 -1720.75C-446.401 -1496.92 -399.146 -1238.6 -329.284 -1000.55C-187.656 -536.208 7.5557 -195.683 200.229 179.547C538.082 818.69 948.391 1182.48 1053.08 1828.16C1194.65 2800.98 565.147 3702.77 -42.9333 4406.25L-272.18 4385.75L-272.214 4385.74Z" fill="url(#paint2_radial_24049_3090)"/>
<path d="M-42.9288 4406.24C565.148 3702.8 1194.68 2801.01 1053.09 1828.16C948.396 1182.47 538.086 818.689 200.234 179.545C7.56027 -195.685 -187.652 -536.209 -329.279 -1000.56C-399.142 -1238.6 -446.396 -1496.92 -539.768 -1720.75L-341.238 -1806.08C-306.436 -1610.75 -300.024 -1389.57 -273.058 -1181.79C-206.177 -649.409 18.8741 -218.283 232.019 179.978C494.192 654.176 841.816 967.03 1052.26 1309.64C1695.54 2357.36 861.821 3594.76 186.32 4426.71L-42.9258 4406.21L-42.9288 4406.24Z" fill="url(#paint3_radial_24049_3090)"/>
<path d="M186.311 4426.75C861.778 3594.8 1695.5 2357.39 1052.25 1309.67C841.841 967.069 494.183 654.212 232.01 180.014C18.862 -218.213 -206.152 -649.37 -273.067 -1181.75C-300.033 -1389.53 -306.445 -1610.71 -341.247 -1806.04L-142.716 -1891.37C-155.015 -1684.45 -186.249 -1455.31 -182.101 -1236.09C-177.886 -712.406 26.8211 -262.139 210.207 85.1402C235.224 131.534 267.684 188.436 297.609 237.161C682.266 865.346 1176.2 1073.27 1392.3 1597.66C1764.21 2525.05 1037.39 3633.53 415.558 4447.25L186.311 4426.75Z" fill="url(#paint4_radial_24049_3090)"/>
<path d="M415.597 4447.25C1037.43 3633.53 1764.24 2525.09 1392.34 1597.66C1176.24 1073.31 682.303 865.384 297.649 237.165C267.723 188.439 235.264 131.537 210.246 85.1436C26.8606 -262.136 -177.846 -712.403 -182.062 -1236.08C-186.21 -1455.31 -154.975 -1684.45 -142.677 -1891.36L55.854 -1976.69C-9.72711 -1756.23 -79.2926 -1502.95 -94.3805 -1257.74C-134.22 -666.032 91.9249 -149.97 330.566 237.596C754.291 902.039 1336.32 1028.87 1594.25 1582.78C1643.99 1689.34 1676.14 1802.21 1693.22 1918.9C1796.28 2767.36 1237.05 3644.84 644.914 4467.72L415.668 4447.22L415.597 4447.25Z" fill="url(#paint5_radial_24049_3090)"/>
<path d="M644.839 4467.75C1236.97 3644.87 1796.2 2767.38 1693.14 1918.92C1676.09 1802.24 1643.91 1689.4 1594.17 1582.8C1336.24 1028.9 754.25 902.068 330.491 237.622C91.8526 -149.979 -134.295 -666.006 -94.4559 -1257.71C-79.368 -1502.92 -9.76844 -1756.2 55.7786 -1976.66L254.309 -2061.98C132.113 -1834.51 22.934 -1555.79 -11.8667 -1280.78C-91.7952 -672.186 117.337 -140.851 362.976 238.289C816.594 925.196 1469.24 973.646 1781.16 1531.93C1837.42 1633.09 1875.4 1742.18 1897.5 1856.11C2036.94 2688.04 1479.25 3613.43 874.054 4488.21L644.808 4467.71L644.839 4467.75Z" fill="url(#paint6_radial_24049_3090)"/>
<path d="M874.116 4488.25C1479.31 3613.43 2037 2688.04 1897.56 1856.15C1875.46 1742.22 1837.48 1633.13 1781.22 1531.97C1469.27 973.685 816.622 925.235 363.038 238.332C117.399 -140.809 -91.7022 -672.107 -11.8047 -1280.74C22.999 -1555.78 132.175 -1834.47 254.371 -2061.94L452.902 -2147.27C-55.4965 -1497.31 -63.136 -692.99 223.887 -63.6232C692.786 967.403 1566.02 843.913 1984.51 1506.2C2455.72 2250.5 1741.24 3589.6 1103.36 4508.75L874.116 4488.25Z" fill="url(#paint7_radial_24049_3090)"/>
<path d="M-500.46 4366.25C193.49 3710.48 741.46 2796.71 666.832 1805.41C627.172 1205.53 378.385 664.216 89.5533 83.3527C-79.3531 -254.578 -276.191 -571.432 -488.442 -921.086C-620.762 -1141.62 -766.521 -1358.5 -935.831 -1549.13L-1134.4 -1463.81C736.518 206.873 1131.15 2775.7 -729.74 4345.74L-500.494 4366.24L-500.46 4366.25Z" stroke="url(#paint8_linear_24049_3090)" stroke-miterlimit="10" stroke-dasharray="5 5"/>
<path d="M-500.454 4366.24C193.496 3710.47 741.465 2796.71 666.838 1805.41C627.177 1205.53 378.391 664.215 89.5588 83.3513C-79.3475 -254.58 -276.185 -571.433 -488.436 -921.087C-620.756 -1141.62 -766.515 -1358.5 -935.825 -1549.13L-737.294 -1634.46C-600.602 -1426.41 -503.494 -1184.38 -404.035 -952.568C-235.38 -567.44 -44.7406 -243.81 123.902 91.6882C416.08 677.772 745.986 1139.99 843.073 1722.19C1013.38 2731.92 393.087 3691.94 -271.205 4386.71L-500.451 4366.21L-500.454 4366.24Z" stroke="url(#paint9_linear_24049_3090)" stroke-miterlimit="10" stroke-dasharray="5 5"/>
<path d="M-41.9288 4407.25C566.148 3703.8 1195.68 2802.01 1054.09 1829.16C949.396 1183.48 539.087 819.691 201.234 180.547C8.56027 -194.683 -186.652 -535.207 -328.279 -999.554C-398.142 -1237.6 -445.396 -1495.92 -538.768 -1719.75L-340.238 -1805.07C-305.436 -1609.75 -299.024 -1388.56 -272.058 -1180.79C-205.177 -648.407 19.8741 -217.281 233.019 180.98C495.192 655.178 842.816 968.031 1053.26 1310.64C1696.54 2358.36 862.821 3595.77 187.32 4427.71L-41.9258 4407.21L-41.9288 4407.25Z" stroke="url(#paint11_linear_24049_3090)" stroke-miterlimit="10" stroke-dasharray="5 5"/>
<path d="M187.311 4427.75C862.778 3595.8 1696.5 2358.4 1053.25 1310.68C842.841 968.07 495.183 655.214 233.01 181.016C19.862 -217.211 -205.152 -648.369 -272.067 -1180.75C-299.033 -1388.53 -305.445 -1609.71 -340.247 -1805.04L-141.716 -1890.36C-154.015 -1683.45 -185.249 -1454.31 -181.101 -1235.08C-176.886 -711.404 27.8211 -261.137 211.207 86.1421C236.224 132.536 268.684 189.438 298.609 238.163C683.266 866.348 1177.2 1074.27 1393.3 1598.66C1765.21 2526.06 1038.39 3634.53 416.558 4448.25L187.311 4427.75Z" stroke="url(#paint12_linear_24049_3090)" stroke-miterlimit="10" stroke-dasharray="5 5"/>
<path d="M416.597 4448.25C1038.43 3634.53 1765.24 2526.09 1393.34 1598.66C1177.24 1074.31 683.303 866.386 298.649 238.167C268.723 189.441 236.264 132.539 211.246 86.1456C27.8608 -261.134 -176.846 -711.401 -181.061 -1235.08C-185.21 -1454.31 -153.975 -1683.45 -141.676 -1890.36L56.8543 -1975.68C-8.72686 -1755.23 -78.2923 -1501.95 -93.3803 -1256.74C-133.22 -665.03 92.9251 -148.969 331.567 238.598C755.291 903.041 1337.32 1029.88 1595.25 1583.78C1644.99 1690.34 1677.14 1803.21 1694.22 1919.9C1797.28 2768.36 1238.05 3645.84 645.915 4468.72L416.668 4448.22L416.597 4448.25Z" stroke="url(#paint13_linear_24049_3090)" stroke-miterlimit="10" stroke-dasharray="5 5"/>
<path d="M645.839 4468.75C1237.97 3645.87 1797.2 2768.39 1694.14 1919.92C1677.09 1803.24 1644.91 1690.4 1595.17 1583.81C1337.24 1029.9 755.25 903.07 331.491 238.624C92.8526 -148.977 -133.295 -665.004 -93.4559 -1256.71C-78.368 -1501.92 -8.76844 -1755.2 56.7786 -1975.66L255.309 -2060.98C133.113 -1833.51 23.934 -1554.79 -10.8667 -1279.78C-90.7952 -671.184 118.337 -139.849 363.976 239.291C817.594 926.198 1470.24 974.648 1782.16 1532.93C1838.42 1634.09 1876.4 1743.18 1898.5 1857.11C2037.94 2689.04 1480.25 3614.43 875.054 4489.21L645.808 4468.71L645.839 4468.75Z" stroke="url(#paint14_linear_24049_3090)" stroke-miterlimit="10" stroke-dasharray="5 5"/>
<path d="M875.116 4489.25C1480.31 3614.44 2038 2689.05 1898.56 1857.15C1876.46 1743.22 1838.48 1634.13 1782.22 1532.98C1470.27 974.687 817.622 926.237 364.038 239.334C118.399 -139.807 -90.7022 -671.105 -10.8047 -1279.74C23.999 -1554.78 133.175 -1833.46 255.371 -2060.94L453.902 -2146.26C-54.4965 -1496.31 -62.136 -691.988 224.887 -62.6213C693.786 968.405 1567.02 844.915 1985.51 1507.2C2456.72 2251.51 1742.24 3590.6 1104.36 4509.75L875.116 4489.25Z" stroke="url(#paint15_linear_24049_3090)" stroke-miterlimit="10" stroke-dasharray="5 5"/>
</g>
<defs>
<radialGradient id="paint0_radial_24049_3090" cx="0" cy="0" r="1" gradientUnits="userSpaceOnUse" gradientTransform="translate(-595.172 1817.46) rotate(57.3512) scale(1005.39 2662.66)">
<stop stop-color="#FFCCF3"/>
<stop offset="0.453945" stop-color="#FBA0E6"/>
<stop offset="0.70978" stop-color="#FFE715"/>
<stop offset="1" stop-color="#FFE715" stop-opacity="0"/>
</radialGradient>
<radialGradient id="paint1_radial_24049_3090" cx="0" cy="0" r="1" gradientUnits="userSpaceOnUse" gradientTransform="translate(-396.853 1790.64) rotate(57.6682) scale(1018.67 2689.95)">
<stop stop-color="#FFCCF3"/>
<stop offset="0.453945" stop-color="#FBA0E6"/>
<stop offset="0.70978" stop-color="#FFE715"/>
<stop offset="1" stop-color="#FFE715" stop-opacity="0"/>
</radialGradient>
<radialGradient id="paint2_radial_24049_3090" cx="0" cy="0" r="1" gradientUnits="userSpaceOnUse" gradientTransform="translate(-197.616 1763.93) rotate(57.9451) scale(1032.42 2718.99)">
<stop stop-color="#FFCCF3"/>
<stop offset="0.453945" stop-color="#FBA0E6"/>
<stop offset="0.70978" stop-color="#FFE715"/>
<stop offset="1" stop-color="#FFE715" stop-opacity="0"/>
</radialGradient>
<radialGradient id="paint3_radial_24049_3090" cx="0" cy="0" r="1" gradientUnits="userSpaceOnUse" gradientTransform="translate(3.6988 1737.39) rotate(58.1475) scale(1047.12 2752.15)">
<stop stop-color="#FFCCF3"/>
<stop offset="0.453945" stop-color="#FBA0E6"/>
<stop offset="0.70978" stop-color="#FFE715"/>
<stop offset="1" stop-color="#FFE715" stop-opacity="0"/>
</radialGradient>
<radialGradient id="paint4_radial_24049_3090" cx="0" cy="0" r="1" gradientUnits="userSpaceOnUse" gradientTransform="translate(204.654 1710.83) rotate(58.3553) scale(1061.67 2784.48)">
<stop stop-color="#FFCCF3"/>
<stop offset="0.453945" stop-color="#FBA0E6"/>
<stop offset="0.70978" stop-color="#FFE715"/>
<stop offset="1" stop-color="#FFE715" stop-opacity="0"/>
</radialGradient>
<radialGradient id="paint5_radial_24049_3090" cx="0" cy="0" r="1" gradientUnits="userSpaceOnUse" gradientTransform="translate(405.95 1684.29) rotate(58.5484) scale(1076.37 2817.33)">
<stop stop-color="#FFCCF3"/>
<stop offset="0.453945" stop-color="#FBA0E6"/>
<stop offset="0.70978" stop-color="#FFE715"/>
<stop offset="1" stop-color="#FFE715" stop-opacity="0"/>
</radialGradient>
<radialGradient id="paint6_radial_24049_3090" cx="0" cy="0" r="1" gradientUnits="userSpaceOnUse" gradientTransform="translate(555.395 1653.12) rotate(57.6644) scale(1106.51 2922.01)">
<stop stop-color="#FFCCF3"/>
<stop offset="0.453945" stop-color="#FBA0E6"/>
<stop offset="0.70978" stop-color="#FFE715"/>
<stop offset="1" stop-color="#FFE715" stop-opacity="0"/>
</radialGradient>
<radialGradient id="paint7_radial_24049_3090" cx="0" cy="0" r="1" gradientUnits="userSpaceOnUse" gradientTransform="translate(690.583 1620.69) rotate(56.5327) scale(1141.56 3044.42)">
<stop stop-color="#FFCCF3"/>
<stop offset="0.453945" stop-color="#FBA0E6"/>
<stop offset="0.70978" stop-color="#FFE715"/>
<stop offset="1" stop-color="#FFE715" stop-opacity="0"/>
</radialGradient>
<linearGradient id="paint8_linear_24049_3090" x1="-71.3057" y1="-1471.82" x2="-592.629" y2="4358" gradientUnits="userSpaceOnUse">
<stop offset="0.432692" stop-color="#FB9CE5"/>
<stop offset="0.557692" stop-color="#FBA2E6" stop-opacity="0"/>
</linearGradient>
<linearGradient id="paint9_linear_24049_3090" x1="133.539" y1="-1556.59" x2="-396.929" y2="4375.5" gradientUnits="userSpaceOnUse">
<stop offset="0.432692" stop-color="#FB9CE5"/>
<stop offset="0.557692" stop-color="#FBA2E6" stop-opacity="0"/>
</linearGradient>
<linearGradient id="paint10_linear_24049_3090" x1="339.568" y1="-1641.21" x2="-200.041" y2="4393.11" gradientUnits="userSpaceOnUse">
<stop offset="0.432692" stop-color="#FB9CE5"/>
<stop offset="0.557692" stop-color="#FBA2E6" stop-opacity="0"/>
</linearGradient>
<linearGradient id="paint11_linear_24049_3090" x1="548.246" y1="-1725.62" x2="-0.507467" y2="4410.95" gradientUnits="userSpaceOnUse">
<stop offset="0.432692" stop-color="#FB9CE5"/>
<stop offset="0.557692" stop-color="#FBA2E6" stop-opacity="0"/>
</linearGradient>
<linearGradient id="paint12_linear_24049_3090" x1="756.468" y1="-1810.04" x2="198.573" y2="4428.75" gradientUnits="userSpaceOnUse">
<stop offset="0.432692" stop-color="#FB9CE5"/>
<stop offset="0.557692" stop-color="#FBA2E6" stop-opacity="0"/>
</linearGradient>
<linearGradient id="paint13_linear_24049_3090" x1="965.113" y1="-1894.46" x2="398.073" y2="4446.6" gradientUnits="userSpaceOnUse">
<stop offset="0.432692" stop-color="#FB9CE5"/>
<stop offset="0.557692" stop-color="#FBA2E6" stop-opacity="0"/>
</linearGradient>
<linearGradient id="paint14_linear_24049_3090" x1="1131.44" y1="-1982.64" x2="555.262" y2="4460.65" gradientUnits="userSpaceOnUse">
<stop offset="0.432692" stop-color="#FB9CE5"/>
<stop offset="0.557692" stop-color="#FBA2E6" stop-opacity="0"/>
</linearGradient>
<linearGradient id="paint15_linear_24049_3090" x1="1286.29" y1="-2071.83" x2="700.97" y2="4473.68" gradientUnits="userSpaceOnUse">
<stop offset="0.432692" stop-color="#FB9CE5"/>
<stop offset="0.557692" stop-color="#FBA2E6" stop-opacity="0"/>
</linearGradient>
<clipPath id="clip0_24049_3090">
<rect width="1702" height="1183" fill="white"/>
</clipPath>
</defs>
</svg>
