<svg width="700" height="776" viewBox="0 0 700 776" fill="none" xmlns="http://www.w3.org/2000/svg">
<g clip-path="url(#clip0_24049_3018)">
<path d="M1703.84 250.708C1043 124.394 620.427 212.8 331.428 331.472C53.8618 445.443 -243.952 683.222 -512.651 603.599C-616.279 572.886 -685.783 508.507 -728.141 458.79L-728.326 416.554C-687.964 474.37 -620.865 549.628 -517.329 584.174C-240.846 676.425 58.5932 399.386 331.693 247.582C614.625 90.3193 1068.21 -43.0895 1809.13 83.1496L1703.85 250.708H1703.84Z" fill="url(#paint0_radial_24049_3018)"/>
<path d="M1703.84 250.713C1043 124.4 620.426 212.805 331.428 331.478C53.8609 445.449 -243.953 683.228 -512.651 603.604C-616.28 572.891 -685.784 508.513 -728.142 458.796L-727.957 501.033C-683.616 542.649 -611.773 596.236 -507.973 623.017C-247.244 690.298 49.4071 491.643 331.163 415.368C626.545 335.398 1017.81 291.883 1598.56 418.271L1703.84 250.713Z" fill="url(#paint1_radial_24049_3018)"/>
<path d="M1598.56 418.264C1017.8 291.876 626.545 335.391 331.163 415.362C49.4064 491.636 -247.244 690.304 -507.974 623.011C-611.774 596.23 -683.617 542.643 -727.957 501.039L-727.772 543.275C-681.436 576.78 -607.32 619.686 -503.295 642.448C-250.694 697.71 45.1905 538.078 330.898 499.265C632.915 458.244 992.62 459.36 1493.28 585.835L1598.56 418.277V418.264Z" fill="url(#paint2_radial_24049_3018)"/>
<path d="M1493.26 585.825C992.593 459.363 632.888 458.234 330.884 499.255C45.1765 538.068 -250.708 697.7 -503.309 642.439C-607.321 619.689 -681.45 576.782 -727.773 543.278L-727.588 585.515C-679.27 610.919 -602.906 643.27 -498.617 661.864C-254.263 705.44 41.1058 580.777 330.633 583.146C639.39 585.676 967.416 626.834 1388 753.371L1493.28 585.813L1493.26 585.825Z" fill="url(#paint3_radial_24049_3018)"/>
<path d="M1387.99 753.385C967.409 626.848 639.383 585.691 330.626 583.16C41.0981 580.791 -254.271 705.455 -498.625 661.878C-602.914 643.284 -679.264 610.934 -727.596 585.53L-727.411 627.766C-677.097 645.07 -598.553 667.001 -493.947 681.304C-257.932 713.555 36.9879 631.86 330.361 667.051C645.872 704.897 942.218 794.332 1282.71 920.943L1387.99 753.385Z" fill="url(#paint4_radial_24049_3018)"/>
</g>
<g clip-path="url(#clip1_24049_3018)">
<path d="M1703.82 250.806C1042.87 124.457 620.221 212.887 331.172 331.593C53.5568 445.596 -244.309 683.442 -513.054 603.796C-616.701 573.074 -686.217 508.678 -728.582 458.947L-728.767 416.698C-688.398 474.531 -621.287 549.81 -517.734 584.365C-241.203 676.643 58.2891 399.526 331.436 247.679C614.418 90.3725 1068.08 -43.0737 1809.13 83.2008L1703.83 250.806H1703.82Z" stroke="url(#paint5_radial_24049_3018)" stroke-miterlimit="10" stroke-dasharray="10 10"/>
<path d="M1703.82 250.812C1042.87 124.463 620.218 212.894 331.169 331.599C53.5543 445.603 -244.311 683.448 -513.057 603.802C-616.703 573.081 -686.219 508.684 -728.585 458.953L-728.399 501.202C-684.051 542.83 -612.196 596.432 -508.377 623.221C-247.603 690.521 49.0996 491.809 330.905 415.514C626.338 335.52 1017.67 291.994 1598.52 418.417L1703.82 250.812Z" stroke="url(#paint6_radial_24049_3018)" stroke-miterlimit="10" stroke-dasharray="10 10"/>
<path d="M1493.21 586.018C992.453 459.52 632.685 458.391 330.629 499.424C44.8717 538.248 -251.064 697.924 -503.709 642.647C-607.739 619.891 -681.882 576.973 -728.212 543.459L-728.027 585.708C-679.701 611.119 -603.324 643.479 -499.017 662.078C-254.62 705.667 40.8005 580.968 330.378 583.338C639.189 585.869 967.272 627.038 1387.92 753.611L1493.22 586.006L1493.21 586.018Z" stroke="url(#paint8_radial_24049_3018)" stroke-miterlimit="10" stroke-dasharray="10 10"/>
<path d="M1387.91 753.625C967.259 627.053 639.176 585.884 330.365 583.352C40.7873 580.982 -254.633 705.681 -499.03 662.092C-603.337 643.493 -679.7 611.134 -728.04 585.722L-727.855 627.971C-677.533 645.28 -598.975 667.217 -494.351 681.523C-258.295 713.784 36.6763 632.066 330.101 667.267C645.666 705.123 942.064 794.583 1282.61 921.23L1387.91 753.625Z" stroke="url(#paint9_radial_24049_3018)" stroke-miterlimit="10" stroke-dasharray="10 10"/>
<path d="M1282.62 921.225C942.067 794.579 645.668 705.118 330.103 667.262C36.6919 632.061 -258.292 713.779 -494.348 681.518C-598.96 667.225 -677.53 645.275 -727.853 627.966L-727.668 670.215C-675.362 679.421 -594.611 691.122 -489.669 700.937C-261.98 722.241 32.4488 679.384 329.839 751.176C652 828.936 916.873 962.109 1177.32 1088.83L1282.62 921.225Z" stroke="url(#paint10_radial_24049_3018)" stroke-miterlimit="10" stroke-dasharray="10 10"/>
<path d="M1177.3 1088.84C916.859 962.118 651.987 828.944 329.825 751.185C32.4355 679.405 -261.993 722.249 -489.682 700.945C-594.624 691.131 -675.362 679.418 -727.681 670.223L-727.496 712.472C-673.195 713.576 -590.262 715.227 -485.003 720.376C-265.668 731.096 27.9941 726.902 329.561 835.099C658.107 952.973 891.665 1129.65 1072 1256.43L1177.3 1088.83V1088.84Z" stroke="url(#paint11_radial_24049_3018)" stroke-miterlimit="10" stroke-dasharray="10 10"/>
<path d="M1072 1256.43C891.649 1129.64 658.091 952.961 329.559 835.099C27.9918 726.903 -265.67 731.097 -485.005 720.377C-590.251 715.227 -673.197 713.577 -727.498 712.473L-727.313 754.721C-558.434 733.703 -129.639 702.249 329.281 919.014C663.96 1077.09 866.455 1297.17 966.704 1424.04L1072 1256.43Z" stroke="url(#paint12_radial_24049_3018)" stroke-miterlimit="10" stroke-dasharray="10 10"/>
</g>
<defs>
<radialGradient id="paint0_radial_24049_3018" cx="0" cy="0" r="1" gradientUnits="userSpaceOnUse" gradientTransform="translate(1211.95 519.213) rotate(-149.497) scale(1574.8 536.113)">
<stop offset="0.376915" stop-color="#FFCCF3"/>
<stop offset="0.622679" stop-color="#D7FF25"/>
<stop offset="0.777753" stop-color="#34E8BB"/>
<stop offset="0.945633" stop-color="#34E8BB" stop-opacity="0"/>
</radialGradient>
<radialGradient id="paint1_radial_24049_3018" cx="0" cy="0" r="1" gradientUnits="userSpaceOnUse" gradientTransform="translate(1131.48 560.107) rotate(-154.871) scale(1436.4 429.884)">
<stop offset="0.376915" stop-color="#FFCCF3"/>
<stop offset="0.622679" stop-color="#D7FF25"/>
<stop offset="0.777753" stop-color="#34E8BB"/>
<stop offset="0.945633" stop-color="#34E8BB" stop-opacity="0"/>
</radialGradient>
<radialGradient id="paint2_radial_24049_3018" cx="0" cy="0" r="1" gradientUnits="userSpaceOnUse" gradientTransform="translate(1051.02 600.009) rotate(-160.949) scale(1316.14 316.099)">
<stop offset="0.376915" stop-color="#FFCCF3"/>
<stop offset="0.622679" stop-color="#D7FF25"/>
<stop offset="0.777753" stop-color="#34E8BB"/>
<stop offset="0.945633" stop-color="#34E8BB" stop-opacity="0"/>
</radialGradient>
<radialGradient id="paint3_radial_24049_3018" cx="0" cy="0" r="1" gradientUnits="userSpaceOnUse" gradientTransform="translate(970.557 705.774) rotate(-162.3) scale(1246.67 281.081)">
<stop offset="0.376915" stop-color="#FFCCF3"/>
<stop offset="0.622679" stop-color="#D7FF25"/>
<stop offset="0.777753" stop-color="#34E8BB"/>
<stop offset="0.945633" stop-color="#34E8BB" stop-opacity="0"/>
</radialGradient>
<radialGradient id="paint4_radial_24049_3018" cx="0" cy="0" r="1" gradientUnits="userSpaceOnUse" gradientTransform="translate(890.091 863.137) rotate(-157.857) scale(1221.34 331.912)">
<stop offset="0.376915" stop-color="#FFCCF3"/>
<stop offset="0.622679" stop-color="#D7FF25"/>
<stop offset="0.777753" stop-color="#34E8BB"/>
<stop offset="0.945633" stop-color="#34E8BB" stop-opacity="0"/>
</radialGradient>
<radialGradient id="paint5_radial_24049_3018" cx="0" cy="0" r="1" gradientUnits="userSpaceOnUse" gradientTransform="translate(11.1873 547) rotate(-70.0819) scale(340.892 613.366)">
<stop stop-color="#A8FDE8"/>
<stop offset="1" stop-color="#003326"/>
</radialGradient>
<radialGradient id="paint6_radial_24049_3018" cx="0" cy="0" r="1" gradientUnits="userSpaceOnUse" gradientTransform="translate(11.1873 547) rotate(-70.0819) scale(340.892 613.366)">
<stop stop-color="#A8FDE8"/>
<stop offset="1" stop-color="#003326"/>
</radialGradient>
<radialGradient id="paint7_radial_24049_3018" cx="0" cy="0" r="1" gradientUnits="userSpaceOnUse" gradientTransform="translate(11.1873 547) rotate(-70.0819) scale(340.892 613.366)">
<stop stop-color="#A8FDE8"/>
<stop offset="1" stop-color="#003326"/>
</radialGradient>
<radialGradient id="paint8_radial_24049_3018" cx="0" cy="0" r="1" gradientUnits="userSpaceOnUse" gradientTransform="translate(11.1873 547) rotate(-70.0819) scale(340.892 613.366)">
<stop stop-color="#A8FDE8"/>
<stop offset="1" stop-color="#003326"/>
</radialGradient>
<radialGradient id="paint9_radial_24049_3018" cx="0" cy="0" r="1" gradientUnits="userSpaceOnUse" gradientTransform="translate(11.1873 547) rotate(-70.0819) scale(340.892 613.366)">
<stop stop-color="#A8FDE8"/>
<stop offset="1" stop-color="#003326"/>
</radialGradient>
<radialGradient id="paint10_radial_24049_3018" cx="0" cy="0" r="1" gradientUnits="userSpaceOnUse" gradientTransform="translate(11.1873 547) rotate(-70.0819) scale(340.892 613.366)">
<stop stop-color="#A8FDE8"/>
<stop offset="1" stop-color="#003326"/>
</radialGradient>
<radialGradient id="paint11_radial_24049_3018" cx="0" cy="0" r="1" gradientUnits="userSpaceOnUse" gradientTransform="translate(11.1873 547) rotate(-70.0819) scale(340.892 613.366)">
<stop stop-color="#A8FDE8"/>
<stop offset="1" stop-color="#003326"/>
</radialGradient>
<radialGradient id="paint12_radial_24049_3018" cx="0" cy="0" r="1" gradientUnits="userSpaceOnUse" gradientTransform="translate(11.1873 547) rotate(-70.0819) scale(340.892 613.366)">
<stop stop-color="#A8FDE8"/>
<stop offset="1" stop-color="#003326"/>
</radialGradient>
<clipPath id="clip0_24049_3018">
<rect width="700" height="776" rx="8" fill="white"/>
</clipPath>
<clipPath id="clip1_24049_3018">
<rect width="700" height="776" rx="8" fill="white"/>
</clipPath>
</defs>
</svg>
